<?xml version="1.0" standalone="no"?>
<!DOCTYPE svg PUBLIC "-//W3C//DTD SVG 20010904//EN"
 "http://www.w3.org/TR/2001/REC-SVG-20010904/DTD/svg10.dtd">
<svg version="1.0" xmlns="http://www.w3.org/2000/svg"
 width="720.000000pt" height="720.000000pt" viewBox="0 0 720.000000 720.000000"
 preserveAspectRatio="xMidYMid meet">
<metadata>
Created by potrace 1.11, written by Peter Selinger 2001-2013
</metadata>
<g transform="translate(0.000000,720.000000) scale(0.100000,-0.100000)"
fill="#000000" stroke="none">
<path d="M3574 7153 c-48 -81 -218 -321 -244 -343 -3 -3 -15 -18 -27 -33 -121
-158 -457 -495 -823 -828 -69 -62 -143 -130 -165 -150 -86 -79 -102 -93 -160
-145 -33 -29 -79 -70 -101 -91 -22 -21 -92 -85 -154 -143 -250 -229 -583 -572
-720 -740 -25 -30 -47 -57 -51 -60 -3 -3 -32 -41 -65 -85 -32 -44 -62 -82 -65
-85 -10 -9 -107 -156 -162 -246 -123 -205 -230 -469 -262 -649 -2 -16 -7 -41
-10 -55 -20 -94 -28 -371 -12 -455 14 -76 37 -170 46 -190 5 -11 19 -47 32
-80 121 -318 410 -600 770 -754 221 -94 426 -135 674 -135 94 1 253 12 265 19
3 2 26 6 50 10 25 3 70 13 100 21 30 9 69 19 85 23 17 5 62 20 100 35 228 89
412 211 573 380 45 48 82 81 82 74 0 -7 -4 -40 -9 -73 -6 -33 -12 -78 -16
-100 -3 -22 -10 -65 -15 -95 -5 -30 -12 -71 -15 -90 -3 -19 -13 -69 -22 -110
-8 -41 -17 -86 -19 -100 -3 -14 -8 -34 -11 -45 -3 -11 -7 -29 -9 -40 -1 -11
-10 -49 -19 -85 -9 -36 -19 -74 -21 -85 -8 -43 -85 -298 -123 -407 -67 -193
-189 -463 -252 -558 -9 -14 -34 -52 -55 -85 -202 -314 -485 -518 -779 -561
-22 -4 -42 -8 -44 -10 -2 -2 750 -3 1670 -3 1625 1 1672 1 1594 19 -92 20
-150 39 -226 75 -270 128 -505 399 -694 800 -30 64 -55 122 -55 129 0 6 -4 16
-9 21 -4 6 -13 24 -19 40 -5 17 -26 73 -44 125 -41 113 -110 342 -133 440 -2
8 -13 53 -24 100 -11 47 -22 96 -25 110 -2 14 -14 70 -25 125 -11 55 -23 115
-26 133 -3 17 -8 47 -11 65 -3 17 -7 43 -9 57 -2 14 -8 54 -14 90 -6 36 -13
87 -17 114 l-6 50 50 -60 c128 -153 347 -321 502 -387 19 -8 55 -24 80 -35 62
-28 222 -78 295 -91 33 -6 70 -13 82 -15 50 -10 164 -19 257 -20 267 -4 524
53 756 168 92 45 216 119 230 137 3 3 12 10 22 15 40 22 148 124 238 224 46
52 133 186 172 265 42 85 94 234 103 295 4 25 11 65 15 90 9 45 6 305 -4 370
-3 19 -11 58 -17 85 -6 28 -13 61 -15 75 -12 58 -73 240 -86 255 -4 5 -8 15
-8 23 0 18 -117 250 -170 337 -129 211 -289 418 -505 655 -86 94 -425 431
-539 535 -61 55 -124 114 -141 130 -37 34 -198 181 -229 208 -43 38 -423 385
-472 432 -184 176 -382 377 -471 480 -89 101 -103 118 -151 180 -25 33 -49 62
-53 65 -7 6 -128 185 -145 215 -6 11 -18 33 -27 48 l-15 29 -28 -49z"/>
</g>
</svg>
